<?xml version="1.0" encoding="utf-8"?>
<!-- Generator: Adobe Illustrator 21.1.0, SVG Export Plug-In . SVG Version: 6.00 Build 0)  -->
<svg version="1.1" id="Layer_1" xmlns="http://www.w3.org/2000/svg" xmlns:xlink="http://www.w3.org/1999/xlink" x="0px" y="0px"
	 viewBox="0 0 544.6 616.3" style="enable-background:new 0 0 544.6 616.3;" xml:space="preserve">
<style type="text/css">
	.st0{fill:#645A53;}
	.st1{fill:#EC5252;}
</style>
<g>
	<g>
		<g>
			<g>
				<path class="st0" d="M469.7,258.8v8.2H468v-8.2h-2.8v-1.6h7.3v1.6H469.7z"/>
				<path class="st0" d="M476.3,260.7v6.3h-1.5v-9.9h1.4l3.8,7l3.8-7h1.2v9.9h-1.6v-6.3L480,267h-0.2L476.3,260.7z"/>
			</g>
		</g>
	</g>
	<g>
		<g>
			<path class="st0" d="M118,480.5V444h15.7v36.2c0,13,5.8,15.7,13.9,15.7c8.7,0,13.2-3.8,13.2-15.7V444h15.8v36.5
				c0,21.5-9.4,30.5-29.8,30.5C127.9,511,118,503.2,118,480.5z M220.2,506c-3.9,3-8.4,4.8-14.8,4.8c-13.5,0-23.3-8.3-23.3-25.5
				c0-17,11.2-26.2,25.6-26.2c3.3,0,6.6,0.5,9.6,1.6v-20.9h15.1v69.8h-9.6L220.2,506z M208.5,497.9c3.4,0,6-0.6,8.7-2.6v-21.4
				c-2.4-1.4-4.8-2.1-8.2-2.1c-7.4,0-11.6,5-11.6,13.3C197.4,493.2,201.7,497.9,208.5,497.9z M264.8,510.6
				c-14.5,0-26.2-7.2-26.2-26.1c0-17.7,11.3-25.4,24.3-25.4c15.7,0,22.7,11,22.7,28.3h-31.7c1.1,8.5,6.3,11,13.3,11
				c6.8,0,12-1.7,16.1-4.4l-2.1,12C277.4,509,272.7,510.6,264.8,510.6z M254,480.2h19.4c-1.1-6.4-4.5-9.5-9.7-9.5
				C259.3,470.7,255.1,473.3,254,480.2z M306.7,476v33.7h-15.1v-49.3h10.6l3.2,4.3c4.1-3.4,8.5-5.5,13.6-5.5c6.8,0,12,2,15.1,7
				c4.6-4.2,9.5-7,15.7-7c11.7,0,18.5,6,18.5,22.4v28h-15.1v-26.3c0-7.6-3.1-9.8-7.9-9.8c-2.9,0-5.3,0.8-7.9,2.5
				c0.2,1.7,0.3,3.5,0.3,5.6v28h-15.1v-26.3c0-7.6-3.1-9.8-8-9.8C311.6,473.6,309.3,474.2,306.7,476z M381.1,526.1h15l25.9-65.7
				h-14.8l-10.7,32.7l-11.3-32.7h-16.6l19.7,47.5L381.1,526.1z"/>
		</g>
	</g>
	<path class="st1" d="M448.1,259.2c-1.3-1-2.7-1.7-4.3-2c-9.2,9.1-20.4,18.8-30.3,25.3c-4.6,3-10.4,4.6-14.2,4.6
		c-8.8,0-12.6-8.4-13.8-21.7c-1.5-17.9-2.6-39.4-2.6-72.5c0-34-7.7-57.1-28.3-58.9c-0.9-0.1-1.7-0.1-2.7-0.1
		c-12.6,0-18.7,6.5-26.8,22.9c-6.9,14.1-17.6,34.7-37.5,73.6c-17.2,33.5-36.3,63.3-52.8,83.9c-4.6,5.7-8.2,9.6-11.6,11.9
		c-2.3,1.5-4.5,2.2-6.8,2.2c-6.5,0-11.2-5.5-12.8-18.2c-0.4-3-0.6-6.5-0.6-10.3c0-26.3,9.9-69,27.2-131.9c12.6-45.7,7.3-77-20.3-77
		h-0.1c-0.1,0-0.1,0-0.2,0l0,0c-6.2,0.1-11.4,2.3-16.4,6.3c-4.9,3.9-9.8,12.2-14.4,23.4c-5.2,12.6-36.6,75.6-86.6,108.1
		c-0.6,12.3,6.4,24.7,20.6,26c12.9,1.2,22-4.2,33.8-12.1c-0.9,3.9-1.7,7.6-2.4,11c-0.9,4-1.6,7.4-2.2,10.2c-0.9,4.1-1.5,6.8-1.6,7.5
		c-1.6,7.5-2.8,14.6-3.6,21.4c-7,63,22.2,94.1,56.3,94.1c5.7,0,11.4-0.7,17-2.1C247.8,375.2,284,332,327,232.5
		c-0.6,10.8-0.7,20.9-0.3,30.3c2.8,57,25.4,74.1,57.2,74.1c24.1,0,46.7-12.6,58.1-28.2c8.4-11.1,11.9-23.3,11.9-32.8
		C454.2,268.1,451.8,262.2,448.1,259.2z"/>
</g>
</svg>
